<svg width="40" height="48" fill="none" xmlns="http://www.w3.org/2000/svg"><path d="M20 7.363c-9.205 0-16.667 7.462-16.667 16.667 0 9.205 7.462 16.667 16.667 16.667 9.205 0 16.667-7.462 16.667-16.667 0-9.205-7.462-16.667-16.667-16.667Zm0 30c-7.364 0-13.333-5.97-13.333-13.333 0-7.364 5.97-13.333 13.333-13.333 7.364 0 13.333 5.97 13.333 13.333-.008 7.36-5.973 13.325-13.332 13.333Z" fill="#3A5368"/><path d="M18.333 22.363h3.334v10h-3.334v-10ZM22.083 17.363a2.083 2.083 0 1 1-4.167 0 2.083 2.083 0 0 1 4.167 0Z" fill="#3A5368"/></svg>