<svg width="40" height="48" viewBox="0 0 40 48" fill="none" xmlns="http://www.w3.org/2000/svg">
<path d="M20.0001 7.36328C10.7953 7.36328 3.33325 14.8253 3.33325 24.0301C3.33325 33.2349 10.7953 40.6969 20.0001 40.6969C29.2049 40.6969 36.6669 33.2349 36.6669 24.0301C36.6669 14.8253 29.2049 7.36328 20.0001 7.36328ZM20.0001 37.3633C12.6365 37.3633 6.66685 31.3937 6.66685 24.0301C6.66685 16.6665 12.6365 10.6969 20.0001 10.6969C27.3637 10.6969 33.3333 16.6665 33.3333 24.0301C33.3248 31.3905 27.3605 37.3549 20.0009 37.3633H20.0001Z" fill="#3A5368"/>
<path d="M18.3333 22.3633H21.6665V32.3633H18.3333V22.3633Z" fill="#3A5368"/>
<path d="M22.0833 17.3633C22.0833 18.5137 21.1504 19.4465 20.0001 19.4465C18.8497 19.4465 17.9169 18.5137 17.9169 17.3633C17.9169 16.2129 18.8497 15.2801 20.0001 15.2801C21.1504 15.2801 22.0833 16.2129 22.0833 17.3633Z" fill="#3A5368"/>
</svg>
