<?xml version="1.0" encoding="utf-8"?>
<!-- Generator: Adobe Illustrator 23.0.4, SVG Export Plug-In . SVG Version: 6.00 Build 0)  -->
<svg version="1.1" id="Ebene_1" xmlns="http://www.w3.org/2000/svg" xmlns:xlink="http://www.w3.org/1999/xlink" x="0px" y="0px"
	 width="211.5px" height="38.9px" viewBox="0 0 211.5 38.9" style="enable-background:new 0 0 211.5 38.9;" xml:space="preserve">
<style type="text/css">
	.st0{clip-path:url(#SVGID_2_);fill:#A52316;}
	.st1{clip-path:url(#SVGID_2_);}
	.st2{fill:#A52316;}
</style>
<g>
	<defs>
		<rect id="SVGID_1_" width="211.5" height="38.9"/>
	</defs>
	<clipPath id="SVGID_2_">
		<use xlink:href="#SVGID_1_"  style="overflow:visible;"/>
	</clipPath>
	<path class="st0" d="M207.3,5.6c-0.3-1-0.8-1.9-1.4-2.7c-1.4-1.7-3.5-2.7-6-2.9c-0.2,0-0.5,0-0.7,0c-1.3,0-2.7,0.3-3.9,0.8
		c-1.3,0.6-2.4,1.4-3.2,2.4L192,3.4l2,0.1l0,0c0.8-0.7,1.7-1.3,2.7-1.6c0.8-0.3,1.6-0.4,2.5-0.4c0.2,0,0.4,0,0.6,0
		c1,0.1,2,0.3,2.8,0.8c0.8,0.4,1.4,0.9,2,1.6c1,1.2,1.5,2.9,1.4,4.6c0,0.9-0.2,1.7-0.5,2.5c-0.3,0.8-0.8,1.6-1.4,2.2
		c-1.3,1.4-3.1,2.1-5.1,2.1c-1.5,0-2.7-0.3-3.6-1c-0.8-0.6-1.5-1.4-1.9-2.5c-0.5-1.5-0.2-3.2,0.6-4.6c0.8-1.3,1.9-2.2,3.3-2.5
		l-1.7,6.9c-0.1,0.4-0.1,0.6,0,0.8c0.1,0.2,0.4,0.2,0.9,0.2l3.3,0h0h0c0.5,0,0.9-0.2,1.3-0.4c0.4-0.2,0.7-0.5,1-0.9
		c0.3-0.3,0.5-0.7,0.7-1.2c0.2-0.4,0.4-0.8,0.5-1.3c0.1-0.4,0.1-0.8,0.1-1.2c0-0.4-0.2-0.7-0.4-1c-0.3-0.5-0.8-0.9-1.5-1
		c-0.2,0-0.5-0.1-0.8-0.1c-0.4,0-0.9,0.1-1.3,0.2c-0.4,0.1-0.8,0.2-1,0.4l0.6-2.2l0.1-0.4c0-0.2,0-0.4,0-0.5
		c-0.1-0.1-0.2-0.2-0.4-0.1h0c-3.4,0.3-5.2,2-6.2,3.3c-0.6,0.9-1,2-1.2,3.1c-0.1,0.5-0.1,1-0.1,1.5c0,0.5,0.1,0.9,0.2,1.4
		c0.2,0.8,0.6,1.5,1,2.1c0.4,0.6,1,1.1,1.6,1.5c0.6,0.4,1.3,0.7,2,0.9c0.7,0.2,1.6,0.3,2.4,0.3c2.6,0,4.9-0.9,6.5-2.6
		c0.7-0.8,1.3-1.7,1.7-2.7c0.4-1,0.6-2,0.6-3.1C207.8,7.6,207.6,6.6,207.3,5.6 M200.4,7C200.4,7,200.5,7,200.4,7c0.1,0,0.2,0,0.2,0
		c0.5,0,0.9,0.2,1.1,0.5c0.2,0.3,0.3,0.7,0.1,1.1c0,0.1,0,0.1-0.1,0.2c-0.2,0.5-0.3,1.1-0.6,1.6c-0.3,0.5-0.8,0.8-1.4,0.9
		c-0.2,0-0.8,0-1.3,0c-0.2,0-0.3,0-0.5,0c-0.2,0-0.3,0-0.3-0.1c-0.1-0.1,0-0.4,0-0.6l0.7-2.7C198.7,7.1,199.8,7,200.4,7"/>
	<g class="st1">
		<path class="st2" d="M1.6,30.3c0.4,0,0.7-0.1,1-0.1c0.3,0,0.5-0.2,0.7-0.3s0.3-0.5,0.4-0.8c0.1-0.4,0.2-0.9,0.2-1.5V15.3
			c0-0.3,0-0.6,0-0.9c0-0.3,0-0.5,0-0.8c0-0.3,0-0.5,0-0.7c0-0.2,0-0.4,0.1-0.5l-2.4,0.1v-2.5l8.9-0.1c1.2,0,2.4,0.1,3.4,0.3
			c1,0.2,1.9,0.6,2.6,1c0.7,0.5,1.3,1,1.6,1.7c0.4,0.7,0.6,1.5,0.6,2.4c0,0.5-0.1,1-0.3,1.5c-0.2,0.5-0.4,0.9-0.8,1.3
			s-0.8,0.8-1.4,1.2c-0.6,0.3-1.3,0.6-2.1,0.8v0c1.1,0.2,2,0.4,2.8,0.8c0.8,0.4,1.4,0.8,1.9,1.3s0.9,1.1,1.1,1.7
			c0.2,0.6,0.4,1.3,0.4,1.9c0,1-0.2,2-0.6,2.7c-0.4,0.8-0.9,1.5-1.6,2c-0.7,0.5-1.5,0.9-2.5,1.2c-0.9,0.3-2,0.4-3.1,0.4H1.6V30.3z
			 M8.4,30.2c0.6,0,1.1,0,1.6,0c0.5,0,1,0,1.5,0c0.6,0,1.2-0.2,1.7-0.4s0.9-0.5,1.2-0.9c0.3-0.4,0.5-0.8,0.7-1.3
			c0.1-0.5,0.2-1,0.2-1.6c0-0.7-0.1-1.3-0.4-1.8c-0.2-0.5-0.5-0.9-0.9-1.2c-0.4-0.3-0.8-0.5-1.3-0.6c-0.5-0.1-1-0.2-1.5-0.2
			c-1,0-1.9,0-2.6,0v5.2c0,0.3,0,0.6,0,0.8s0,0.5,0,0.8c0,0.2,0,0.5,0,0.7S8.4,30.1,8.4,30.2z M10.2,19.9c0.7,0,1.2-0.1,1.7-0.4
			s0.8-0.5,1.1-0.9c0.3-0.4,0.5-0.8,0.6-1.3c0.1-0.5,0.2-1.1,0.2-1.7c0-0.6-0.1-1.2-0.3-1.6s-0.5-0.8-0.8-1
			c-0.3-0.2-0.7-0.4-1.1-0.5c-0.4-0.1-0.8-0.2-1.2-0.2c-0.3,0-0.5,0-0.7,0.1c-0.2,0.1-0.4,0.2-0.6,0.4c-0.2,0.2-0.3,0.4-0.4,0.8
			c-0.1,0.3-0.1,0.8-0.1,1.4v5L10.2,19.9z"/>
		<path class="st2" d="M37,23.9L26.5,24c0,0.9,0.1,1.7,0.2,2.4c0.2,0.7,0.4,1.4,0.8,1.9c0.4,0.5,0.8,1,1.4,1.3s1.3,0.5,2.1,0.5
			c0.3,0,0.7,0,1.1-0.1c0.4-0.1,0.8-0.2,1.2-0.4c0.4-0.2,0.8-0.4,1.2-0.7c0.4-0.3,0.8-0.7,1.2-1.1l1.4,1.4c-0.6,0.8-1.2,1.5-1.8,2
			c-0.6,0.5-1.3,0.9-1.9,1.2c-0.6,0.3-1.3,0.5-1.9,0.6c-0.6,0.1-1.2,0.1-1.8,0.1c-1.2,0-2.2-0.2-3.2-0.6s-1.8-1-2.5-1.7
			S22.7,29,22.3,28s-0.6-2.2-0.6-3.5c0-1.1,0.2-2.2,0.6-3.2c0.4-1,0.9-1.9,1.6-2.7s1.5-1.4,2.5-1.9c1-0.5,2.1-0.7,3.3-0.7
			c0.6,0,1.2,0.1,1.8,0.2s1.1,0.3,1.7,0.5c0.5,0.2,1,0.6,1.5,1s0.9,0.9,1.2,1.5c0.3,0.6,0.6,1.3,0.8,2.1C36.9,21.9,37,22.8,37,23.9z
			 M29.9,18.2c-0.5,0-0.9,0.1-1.3,0.3c-0.4,0.2-0.7,0.4-1,0.7c-0.3,0.3-0.5,0.7-0.7,1.1s-0.3,0.9-0.4,1.5h5.9c0-0.7-0.1-1.2-0.2-1.7
			c-0.1-0.5-0.3-0.8-0.6-1.1c-0.2-0.3-0.5-0.5-0.8-0.6C30.6,18.3,30.3,18.2,29.9,18.2z"/>
		<path class="st2" d="M49.7,16c0.4,0,0.7,0.1,1.1,0.2s0.6,0.3,0.9,0.5c0.3,0.2,0.5,0.5,0.6,0.8c0.2,0.3,0.2,0.7,0.2,1.2
			c0,0.2,0,0.5-0.1,0.8s-0.2,0.5-0.4,0.7s-0.4,0.4-0.7,0.5c-0.3,0.1-0.6,0.2-1,0.2c-0.2,0-0.4,0-0.7-0.1c-0.2-0.1-0.4-0.2-0.6-0.3
			c-0.2-0.1-0.4-0.3-0.5-0.6c-0.1-0.2-0.2-0.5-0.3-0.9c-0.3,0-0.6,0.1-1,0.3c-0.3,0.2-0.6,0.5-0.9,0.8s-0.5,0.7-0.8,1
			c-0.2,0.4-0.4,0.7-0.5,1v5.2c0,0.2,0,0.3,0,0.6c0,0.2,0,0.5,0,0.7c0,0.2,0,0.5,0,0.8s0,0.5-0.1,0.8L47,30v2.4h-8.4v-2.1
			c0.4,0,0.8-0.1,1.1-0.2c0.3-0.1,0.4-0.3,0.6-0.6c0.1-0.2,0.2-0.5,0.2-0.9c0-0.3,0-0.7,0-1.2v-5.4c0-0.4,0-0.8,0-1.3
			c0-0.5,0-0.9,0.1-1.4l-2.2,0.1v-2.4c0.7,0,1.4,0,2-0.1c0.6-0.1,1-0.1,1.4-0.2c0.4-0.1,0.7-0.2,1-0.3c0.2-0.1,0.4-0.2,0.5-0.3h1.6
			l0.1,2.7h0c0.2-0.3,0.5-0.6,0.8-0.9c0.3-0.3,0.6-0.7,1-1c0.4-0.3,0.8-0.5,1.3-0.7S49.1,16,49.7,16z"/>
		<path class="st2" d="M59.3,27.3c0,0.2,0,0.3,0,0.6c0,0.2,0,0.5,0,0.7c0,0.2,0,0.5,0,0.8s0,0.5-0.1,0.8l2.1-0.1v2.4h-8.4v-2.1
			c0.4,0,0.8-0.1,1.1-0.2c0.3-0.1,0.4-0.3,0.6-0.6c0.1-0.2,0.2-0.5,0.2-0.9c0-0.3,0-0.7,0-1.2V14.4c0-0.4,0-0.8,0-1.3s0-1,0.1-1.5
			l-2.2,0.1V9.3c0.7,0,1.4,0,2-0.1c0.6-0.1,1-0.1,1.4-0.2c0.4-0.1,0.7-0.2,1-0.3c0.2-0.1,0.4-0.2,0.5-0.3h1.7V27.3z"/>
		<path class="st2" d="M69.5,27.3c0,0.2,0,0.3,0,0.6c0,0.2,0,0.5,0,0.7c0,0.2,0,0.5,0,0.8s0,0.5-0.1,0.8l2.1-0.1v2.4H63v-2.1
			c0.4,0,0.8-0.1,1.1-0.2c0.3-0.1,0.4-0.3,0.6-0.6c0.1-0.2,0.2-0.5,0.2-0.9c0-0.3,0-0.7,0-1.2v-5.3c0-0.4,0-0.8,0-1.3s0-1,0.1-1.5
			l-2.2,0.1v-2.4c0.7,0,1.4,0,2-0.1c0.6-0.1,1-0.1,1.4-0.2c0.4-0.1,0.7-0.2,1-0.3c0.2-0.1,0.4-0.2,0.5-0.3h1.7V27.3z M69.9,10.7
			c0,0.4-0.1,0.7-0.2,1s-0.3,0.6-0.5,0.8c-0.2,0.2-0.5,0.4-0.7,0.6s-0.6,0.2-1,0.2c-0.4,0-0.7-0.1-1-0.2c-0.3-0.1-0.6-0.3-0.8-0.6
			c-0.2-0.2-0.4-0.5-0.5-0.8s-0.2-0.6-0.2-1s0.1-0.7,0.2-1c0.1-0.3,0.3-0.6,0.5-0.8c0.2-0.2,0.5-0.4,0.8-0.6
			c0.3-0.1,0.6-0.2,0.9-0.2c0.3,0,0.7,0.1,1,0.2c0.3,0.1,0.6,0.3,0.8,0.6s0.4,0.5,0.5,0.8C69.9,10,69.9,10.4,69.9,10.7z"/>
		<path class="st2" d="M89.5,27.3c0,0.2,0,0.3,0,0.6s0,0.5,0,0.7c0,0.2,0,0.5,0,0.8s0,0.5-0.1,0.8l2.1-0.1v2.4H83v-2.1
			c0.4,0,0.8-0.1,1.1-0.2c0.3-0.1,0.4-0.3,0.6-0.6c0.1-0.2,0.2-0.5,0.2-0.9c0-0.3,0-0.7,0-1.2l0-4.5c0-1.4-0.2-2.4-0.6-3.1
			c-0.4-0.7-1.1-1-1.9-1c-0.6,0-1.1,0.1-1.6,0.3s-1,0.5-1.3,0.8v7.2c0,0.2,0,0.3,0,0.6c0,0.2,0,0.5,0,0.7c0,0.2,0,0.5,0,0.8
			s0,0.5-0.1,0.8l2.1-0.1v2.4H73v-2.1c0.4,0,0.8-0.1,1.1-0.2c0.3-0.1,0.4-0.3,0.6-0.6c0.1-0.2,0.2-0.5,0.2-0.9c0-0.3,0-0.7,0-1.2
			v-5.4c0-0.4,0-0.8,0-1.3c0-0.5,0-0.9,0.1-1.4l-2.2,0.1v-2.4c0.7,0,1.4,0,2-0.1c0.6-0.1,1-0.1,1.4-0.2c0.4-0.1,0.7-0.2,1-0.3
			c0.2-0.1,0.4-0.2,0.5-0.3h1.6l0.1,1.6h0c0.3-0.2,0.7-0.5,1.1-0.7c0.4-0.2,0.8-0.4,1.2-0.6s0.8-0.3,1.2-0.4
			c0.4-0.1,0.8-0.1,1.1-0.1c1,0,1.8,0.1,2.5,0.4c0.7,0.3,1.2,0.7,1.7,1.3c0.4,0.6,0.7,1.3,0.9,2.2c0.2,0.9,0.3,2,0.3,3.2V27.3z"/>
		<path class="st2" d="M92.4,21.3c0-0.9,0.1-1.8,0.3-2.7s0.5-1.8,0.9-2.7c0.4-0.9,0.9-1.7,1.5-2.4c0.6-0.8,1.3-1.4,2.2-2
			c0.8-0.6,1.8-1,2.8-1.3c1-0.3,2.2-0.5,3.5-0.5c1.3,0,2.5,0.2,3.5,0.5c1.1,0.3,2,0.8,2.8,1.4c0.8,0.6,1.5,1.2,2.1,2
			c0.6,0.8,1.1,1.6,1.5,2.4c0.4,0.9,0.7,1.8,0.9,2.7c0.2,0.9,0.3,1.8,0.3,2.7c0,0.9-0.1,1.8-0.3,2.7c-0.2,0.9-0.5,1.8-0.9,2.7
			c-0.4,0.9-0.9,1.7-1.5,2.4c-0.6,0.8-1.3,1.4-2.2,2c-0.8,0.6-1.8,1-2.8,1.4s-2.2,0.5-3.4,0.5c-1.4,0-2.6-0.2-3.6-0.5
			c-1.1-0.3-2-0.8-2.8-1.3c-0.8-0.6-1.5-1.2-2.1-2c-0.6-0.8-1.1-1.6-1.4-2.4c-0.4-0.9-0.6-1.8-0.8-2.7S92.4,22.2,92.4,21.3z
			 M97.4,20.9c0,0.7,0,1.4,0.1,2.1c0.1,0.7,0.2,1.5,0.5,2.2s0.5,1.4,0.8,2.1c0.3,0.7,0.7,1.2,1.2,1.7c0.5,0.5,1,0.9,1.7,1.2
			c0.6,0.3,1.4,0.4,2.2,0.4c0.7,0,1.4-0.1,2-0.4s1.1-0.6,1.5-1c0.4-0.4,0.8-0.9,1.1-1.5c0.3-0.6,0.5-1.2,0.7-1.8
			c0.2-0.6,0.3-1.3,0.4-2c0.1-0.7,0.1-1.4,0.1-2c0-1.4-0.1-2.8-0.4-4c-0.2-1.2-0.6-2.3-1.2-3.1c-0.5-0.9-1.2-1.6-2-2.1
			c-0.8-0.5-1.7-0.7-2.8-0.7c-0.8,0-1.4,0.1-2,0.4c-0.6,0.3-1.1,0.6-1.5,1.1s-0.8,1-1.1,1.6c-0.3,0.6-0.5,1.2-0.7,1.9
			s-0.3,1.3-0.4,2.1C97.5,19.5,97.4,20.2,97.4,20.9z"/>
		<path class="st2" d="M133.1,27.3c0,0.2,0,0.3,0,0.6s0,0.5,0,0.7c0,0.2,0,0.5,0,0.8s0,0.5-0.1,0.8l2.1-0.1v2.4h-8.4v-2.1
			c0.4,0,0.8-0.1,1.1-0.2c0.3-0.1,0.4-0.3,0.6-0.6c0.1-0.2,0.2-0.5,0.2-0.9c0-0.3,0-0.7,0-1.2l0-4.5c0-1.4-0.2-2.4-0.6-3.1
			c-0.4-0.7-1.1-1-1.9-1c-0.6,0-1.1,0.1-1.6,0.3c-0.5,0.2-1,0.5-1.3,0.8v7.2c0,0.2,0,0.3,0,0.6c0,0.2,0,0.5,0,0.7c0,0.2,0,0.5,0,0.8
			s0,0.5-0.1,0.8l2.1-0.1v2.4h-8.4v-2.1c0.4,0,0.8-0.1,1.1-0.2c0.3-0.1,0.4-0.3,0.6-0.6c0.1-0.2,0.2-0.5,0.2-0.9c0-0.3,0-0.7,0-1.2
			v-5.4c0-0.4,0-0.8,0-1.3c0-0.5,0-0.9,0.1-1.4l-2.2,0.1v-2.4c0.7,0,1.4,0,2-0.1c0.6-0.1,1-0.1,1.5-0.2c0.4-0.1,0.7-0.2,1-0.3
			c0.2-0.1,0.4-0.2,0.5-0.3h1.6l0.1,1.6h0c0.3-0.2,0.7-0.5,1.1-0.7s0.8-0.4,1.2-0.6s0.8-0.3,1.2-0.4c0.4-0.1,0.8-0.1,1.1-0.1
			c1,0,1.8,0.1,2.5,0.4c0.7,0.3,1.2,0.7,1.7,1.3c0.4,0.6,0.7,1.3,0.9,2.2c0.2,0.9,0.3,2,0.3,3.2V27.3z"/>
		<path class="st2" d="M142.6,27.3c0,0.2,0,0.3,0,0.6c0,0.2,0,0.5,0,0.7c0,0.2,0,0.5,0,0.8s0,0.5-0.1,0.8l2.1-0.1v2.4h-8.4v-2.1
			c0.4,0,0.8-0.1,1.1-0.2c0.3-0.1,0.4-0.3,0.6-0.6c0.1-0.2,0.2-0.5,0.2-0.9c0-0.3,0-0.7,0-1.2V14.4c0-0.4,0-0.8,0-1.3s0-1,0.1-1.5
			l-2.2,0.1V9.3c0.7,0,1.4,0,2-0.1s1-0.1,1.4-0.2c0.4-0.1,0.7-0.2,1-0.3c0.2-0.1,0.4-0.2,0.5-0.3h1.7V27.3z"/>
		<path class="st2" d="M152.7,27.3c0,0.2,0,0.3,0,0.6c0,0.2,0,0.5,0,0.7c0,0.2,0,0.5,0,0.8s0,0.5-0.1,0.8l2.1-0.1v2.4h-8.4v-2.1
			c0.4,0,0.8-0.1,1.1-0.2c0.3-0.1,0.4-0.3,0.6-0.6c0.1-0.2,0.2-0.5,0.2-0.9c0-0.3,0-0.7,0-1.2v-5.3c0-0.4,0-0.8,0-1.3s0-1,0.1-1.5
			l-2.2,0.1v-2.4c0.7,0,1.4,0,2-0.1c0.6-0.1,1-0.1,1.4-0.2c0.4-0.1,0.7-0.2,1-0.3c0.2-0.1,0.4-0.2,0.5-0.3h1.7V27.3z M153.2,10.7
			c0,0.4-0.1,0.7-0.2,1c-0.1,0.3-0.3,0.6-0.5,0.8c-0.2,0.2-0.5,0.4-0.7,0.6c-0.3,0.1-0.6,0.2-1,0.2c-0.4,0-0.7-0.1-1-0.2
			s-0.6-0.3-0.8-0.6c-0.2-0.2-0.4-0.5-0.5-0.8c-0.1-0.3-0.2-0.6-0.2-1s0.1-0.7,0.2-1c0.1-0.3,0.3-0.6,0.5-0.8
			c0.2-0.2,0.5-0.4,0.8-0.6c0.3-0.1,0.6-0.2,0.9-0.2c0.3,0,0.7,0.1,1,0.2c0.3,0.1,0.6,0.3,0.8,0.6s0.4,0.5,0.5,0.8
			C153.2,10,153.2,10.4,153.2,10.7z"/>
		<path class="st2" d="M172.9,27.3c0,0.2,0,0.3,0,0.6c0,0.2,0,0.5,0,0.7c0,0.2,0,0.5,0,0.8s0,0.5-0.1,0.8l2.1-0.1v2.4h-8.4v-2.1
			c0.4,0,0.8-0.1,1.1-0.2c0.3-0.1,0.4-0.3,0.6-0.6c0.1-0.2,0.2-0.5,0.2-0.9c0-0.3,0-0.7,0-1.2l0-4.5c0-1.4-0.2-2.4-0.6-3.1
			s-1.1-1-1.9-1c-0.6,0-1.1,0.1-1.6,0.3s-1,0.5-1.3,0.8v7.2c0,0.2,0,0.3,0,0.6s0,0.5,0,0.7c0,0.2,0,0.5,0,0.8s0,0.5-0.1,0.8l2.1-0.1
			v2.4h-8.4v-2.1c0.4,0,0.8-0.1,1.1-0.2c0.3-0.1,0.4-0.3,0.6-0.6c0.1-0.2,0.2-0.5,0.2-0.9c0-0.3,0-0.7,0-1.2v-5.4c0-0.4,0-0.8,0-1.3
			c0-0.5,0-0.9,0.1-1.4l-2.2,0.1v-2.4c0.7,0,1.4,0,2-0.1c0.6-0.1,1-0.1,1.4-0.2c0.4-0.1,0.7-0.2,1-0.3c0.2-0.1,0.4-0.2,0.5-0.3h1.6
			l0.1,1.6h0c0.3-0.2,0.7-0.5,1.1-0.7s0.8-0.4,1.2-0.6c0.4-0.2,0.8-0.3,1.2-0.4c0.4-0.1,0.8-0.1,1.1-0.1c1,0,1.8,0.1,2.5,0.4
			c0.7,0.3,1.2,0.7,1.7,1.3c0.4,0.6,0.7,1.3,0.9,2.2c0.2,0.9,0.3,2,0.3,3.2V27.3z"/>
		<path class="st2" d="M191,23.9L180.5,24c0,0.9,0.1,1.7,0.2,2.4c0.2,0.7,0.4,1.4,0.8,1.9c0.4,0.5,0.8,1,1.4,1.3s1.3,0.5,2.1,0.5
			c0.3,0,0.7,0,1.1-0.1c0.4-0.1,0.8-0.2,1.2-0.4c0.4-0.2,0.8-0.4,1.2-0.7c0.4-0.3,0.8-0.7,1.2-1.1l1.4,1.4c-0.6,0.8-1.2,1.5-1.8,2
			s-1.3,0.9-1.9,1.2c-0.6,0.3-1.3,0.5-1.9,0.6c-0.6,0.1-1.2,0.1-1.8,0.1c-1.2,0-2.2-0.2-3.2-0.6s-1.8-1-2.5-1.7s-1.2-1.6-1.6-2.7
			c-0.4-1-0.6-2.2-0.6-3.5c0-1.1,0.2-2.2,0.6-3.2c0.4-1,0.9-1.9,1.6-2.7s1.5-1.4,2.5-1.9s2.1-0.7,3.3-0.7c0.6,0,1.2,0.1,1.8,0.2
			s1.1,0.3,1.7,0.5c0.5,0.2,1,0.6,1.5,1s0.9,0.9,1.2,1.5c0.3,0.6,0.6,1.3,0.8,2.1C190.9,21.9,191,22.8,191,23.9z M183.9,18.2
			c-0.5,0-0.9,0.1-1.3,0.3c-0.4,0.2-0.7,0.4-1,0.7c-0.3,0.3-0.5,0.7-0.7,1.1s-0.3,0.9-0.4,1.5h5.9c0-0.7-0.1-1.2-0.2-1.7
			c-0.1-0.5-0.3-0.8-0.6-1.1c-0.2-0.3-0.5-0.5-0.8-0.6C184.7,18.3,184.3,18.2,183.9,18.2z"/>
	</g>
</g>
</svg>
