<?xml version="1.0" encoding="utf-8"?>
<!-- Generator: Adobe Illustrator 22.0.1, SVG Export Plug-In . SVG Version: 6.00 Build 0)  -->
<svg version="1.1" id="Ebene_1" xmlns="http://www.w3.org/2000/svg" xmlns:xlink="http://www.w3.org/1999/xlink" x="0px" y="0px"
	 width="147.9px" height="56.5px" viewBox="0 0 147.9 56.5" style="enable-background:new 0 0 147.9 56.5;" xml:space="preserve">
<style type="text/css">
	.st0{fill-rule:evenodd;clip-rule:evenodd;fill:#DADFE2;}
	.st1{fill-rule:evenodd;clip-rule:evenodd;fill:#003478;}
</style>
<polygon class="st0" points="5.4,15.3 5.4,40 1.1,40 1.1,15.3 5.4,15.3 "/>
<polygon class="st0" points="13.4,15.3 13.4,40 9.1,40 9.1,15.3 13.4,15.3 "/>
<polygon class="st0" points="21.4,15.3 21.4,40 17.1,40 17.1,15.3 21.4,15.3 "/>
<polygon class="st0" points="29.4,15.3 29.4,40 25.1,40 25.1,15.3 29.4,15.3 "/>
<polygon class="st0" points="37.4,15.3 37.4,40 33.1,40 33.1,15.3 37.4,15.3 "/>
<polygon class="st0" points="45.4,15.3 45.4,40 41.1,40 41.1,15.3 45.4,15.3 "/>
<polygon class="st1" points="62.6,9 62.6,40 58.4,40 58.4,9 62.6,9 "/>
<polygon class="st1" points="81,12.6 81,40 76.8,40 76.8,12.6 67.5,12.6 67.5,9 90.3,9 90.3,12.6 81,12.6 "/>
<path class="st1" d="M99.8,12.7v23.8h5.5c2.7,0,4.8-0.1,6.8-1.3c2.1-1.1,4.7-4,4.7-10.6c0-5.1-1.5-9.8-6.5-11.4
	c-1.7-0.5-3.5-0.5-5.7-0.5H99.8L99.8,12.7z M95.6,9h9.7c4.4,0,8.3,0,11.9,3.8c3.7,4,3.9,9.5,3.9,11.7c0,2.2-0.1,8.2-4.3,12.2
	c-3.6,3.3-7.8,3.3-10.4,3.3H95.6V9L95.6,9z"/>
<polygon class="st1" points="147.5,9 147.5,12.9 128.4,36.3 147.9,36.3 147.9,40 123.7,40 123.7,36 142.8,12.8 125.2,12.8 125.2,9 
	147.5,9 "/>
<path class="st1" d="M59.3,52.4v3.1h2.7c0.6,0,0.8,0,1.1-0.1c0.8-0.2,1-0.7,1-1.4c0-1-0.8-1.4-0.9-1.4c-0.4-0.2-0.6-0.2-1.7-0.2
	H59.3L59.3,52.4z M59.3,48.6v2.7h1.9c1.4,0,2,0,2.4-0.6c0.2-0.2,0.2-0.5,0.2-0.8c0-1.3-1.2-1.3-1.7-1.3H59.3L59.3,48.6z M58.1,47.6
	h3.7c0.5,0,0.8,0,1.2,0.1c0.9,0.2,2,0.8,2,2.2c0,1.1-0.7,1.7-1.4,1.9c0.3,0.1,1.6,0.5,1.6,2.2c0,0.4-0.1,1.4-1,2
	c-0.7,0.5-1.3,0.5-2.6,0.5h-3.5V47.6L58.1,47.6z"/>
<polygon class="st1" points="69.3,52.5 69.3,55.5 74.5,55.5 74.5,56.5 68.2,56.5 68.2,47.6 74.3,47.6 74.3,48.6 69.3,48.6 
	69.3,51.4 73.7,51.4 73.7,52.5 69.3,52.5 "/>
<path class="st1" d="M78.2,51.8h2.4c0.4,0,0.7,0,1.1-0.1c0.8-0.2,1.1-0.8,1.1-1.4c0-0.2,0-0.8-0.5-1.3c-0.5-0.4-1.1-0.4-1.7-0.4
	h-2.3V51.8L78.2,51.8z M78.2,52.7v3.8h-1.2v-9h3.3c1.2,0,2,0,2.7,0.5c0.7,0.5,0.9,1.2,0.9,2.1c0,2.1-1.7,2.4-2.1,2.5l2.5,3.9H83
	l-2.4-3.8H78.2L78.2,52.7z"/>
<polygon class="st1" points="87.9,55.5 92.2,55.5 92.2,56.5 86.7,56.5 86.7,47.6 87.9,47.6 87.9,55.5 "/>
<polygon class="st1" points="95.5,47.6 95.5,56.5 94.3,56.5 94.3,47.6 95.5,47.6 "/>
<polygon class="st1" points="105.6,47.6 105.6,56.5 104.5,56.5 99.6,49.3 99.7,56.5 98.6,56.5 98.6,47.6 99.7,47.6 104.6,54.8 
	104.5,47.6 105.6,47.6 "/>
<path class="st0" d="M26.3,3c0,1.7-1.4,3-3,3c-1.7,0-3-1.4-3-3s1.4-3,3-3C24.9,0,26.3,1.4,26.3,3L26.3,3z"/>
<polygon class="st0" points="0,9 46.5,9 46.5,12.8 0,12.8 0,9 "/>
</svg>
