<?xml version="1.0" encoding="utf-8"?>
<!-- Generator: Adobe Illustrator 23.0.3, SVG Export Plug-In . SVG Version: 6.00 Build 0)  -->
<svg version="1.1" id="Ebene_1" xmlns="http://www.w3.org/2000/svg" xmlns:xlink="http://www.w3.org/1999/xlink" x="0px" y="0px"
	 width="237.1px" height="47.8px" viewBox="0 0 237.1 47.8" style="enable-background:new 0 0 237.1 47.8;" xml:space="preserve">
<style type="text/css">
	.st0{fill:#FFFFFF;}
</style>
<g id="Text">
	<g>
		<path class="st0" d="M149.9,29.2l8-20.8h3l8.5,20.8h-3.2l-2.4-6.3h-8.7l-2.3,6.3H149.9z M155.9,20.7h7l-2.2-5.7
			c-0.7-1.7-1.2-3.2-1.5-4.3c-0.3,1.3-0.6,2.7-1.1,4L155.9,20.7z"/>
		<path class="st0" d="M180.7,29.2v-1.9c-1,1.5-2.4,2.2-4.2,2.2c-1.2,0-2.3-0.3-3.3-1s-1.8-1.6-2.3-2.8c-0.6-1.2-0.8-2.5-0.8-4.1
			c0-1.5,0.2-2.9,0.8-4.1c0.5-1.2,1.2-2.2,2.3-2.8c1-0.7,2.1-1,3.4-1c0.9,0,1.7,0.2,2.4,0.6c0.7,0.4,1.3,0.9,1.7,1.5V8.4h2.5v20.8
			C183.2,29.2,180.7,29.2,180.7,29.2z M172.6,21.7c0,1.9,0.4,3.4,1.2,4.3c0.8,1,1.8,1.4,2.9,1.4c1.1,0,2.1-0.5,2.8-1.4
			c0.8-0.9,1.2-2.3,1.2-4.2c0-2.1-0.4-3.6-1.2-4.5s-1.8-1.4-2.9-1.4c-1.1,0-2.1,0.5-2.8,1.4C173,18.3,172.6,19.7,172.6,21.7z"/>
		<path class="st0" d="M186.4,29.2v-15h2.3v2.1c0.5-0.7,1.1-1.3,1.9-1.8c0.8-0.4,1.7-0.7,2.7-0.7c1.1,0,2,0.2,2.7,0.7
			s1.2,1.1,1.5,1.9c1.2-1.8,2.7-2.6,4.6-2.6c1.5,0,2.6,0.4,3.4,1.2c0.8,0.8,1.2,2.1,1.2,3.8v10.3h-2.5v-9.5c0-1-0.1-1.8-0.2-2.2
			s-0.5-0.8-0.9-1.1s-0.9-0.4-1.5-0.4c-1.1,0-1.9,0.4-2.6,1.1s-1,1.8-1,3.4v8.7h-2.5v-9.8c0-1.1-0.2-2-0.6-2.5s-1.1-0.8-2-0.8
			c-0.7,0-1.4,0.2-2,0.6c-0.6,0.4-1.1,0.9-1.3,1.7c-0.3,0.7-0.4,1.8-0.4,3.1v7.8H186.4z"/>
		<path class="st0" d="M210.2,11.4V8.5h2.5v2.9H210.2z M210.2,29.2v-15h2.5v15H210.2z"/>
		<path class="st0" d="M216.1,29.2v-15h2.3v2.1c1.1-1.7,2.7-2.5,4.8-2.5c0.9,0,1.7,0.2,2.5,0.5s1.3,0.8,1.7,1.3
			c0.4,0.5,0.6,1.2,0.8,1.9c0.1,0.5,0.1,1.3,0.1,2.5v9.2h-2.5v-9.1c0-1-0.1-1.8-0.3-2.3c-0.2-0.5-0.5-0.9-1.1-1.2s-1.1-0.5-1.8-0.5
			c-1.1,0-2,0.3-2.8,1s-1.2,2-1.2,3.9v8.2H216.1z"/>
	</g>
</g>
<g>
	<path class="st0" d="M141.4,0H40v16.4h15.3v5.1H30.1v26.3h5V26H40v21.8h5V26h5.3v21.8h4.9l0.1-10h86.1h95.7V0H141.4z M78.7,25.9
		c-0.4,0.8-0.9,1.5-1.5,1.9s-1.4,0.8-2.3,1s-2,0.3-3.3,0.3h-7.9V8.4h7.8c1.6,0,2.9,0.2,3.8,0.6s1.7,1.1,2.3,1.9s0.8,1.8,0.8,2.7
		c0,0.9-0.2,1.7-0.7,2.5c-0.5,0.8-1.2,1.4-2.2,1.9c1.3,0.4,2.2,1,2.9,1.9c0.7,0.9,1,1.9,1,3.1C79.3,24.2,79.1,25.1,78.7,25.9z
		 M95.1,22.3H83.9c0.1,1.7,0.6,2.9,1.4,3.8c0.8,0.9,1.9,1.3,3.1,1.3c0.9,0,1.7-0.2,2.4-0.7c0.7-0.5,1.2-1.3,1.6-2.4l2.6,0.3
		c-0.4,1.5-1.2,2.7-2.3,3.6c-1.1,0.8-2.6,1.3-4.3,1.3c-2.2,0-3.9-0.7-5.2-2c-1.3-1.4-1.9-3.3-1.9-5.7c0-2.5,0.7-4.5,2-5.9
		s3-2.1,5.1-2.1c2,0,3.7,0.7,4.9,2.1c1.3,1.4,1.9,3.3,1.9,5.8C95.1,21.8,95.1,22,95.1,22.3z M105.2,17c-0.6-0.4-1.2-0.6-1.9-0.6
		c-0.6,0-1.1,0.2-1.5,0.5s-0.8,0.8-0.9,1.4c-0.3,0.9-0.4,1.9-0.4,3v7.9h-2.5v-15h2.3v2.3c0.6-1.1,1.1-1.8,1.6-2.1
		c0.5-0.3,1-0.5,1.6-0.5c0.9,0,1.7,0.3,2.6,0.8L105.2,17z M110.7,29.2h-2.5V8.4h2.5V29.2z M116.9,29.2h-2.5v-15h2.5V29.2z
		 M116.9,11.4h-2.5V8.4h2.5V11.4z M132.7,29.2h-2.5v-9.1c0-1-0.1-1.8-0.3-2.3c-0.2-0.5-0.5-0.9-1.1-1.2S127.7,16,127,16
		c-1.1,0-2,0.3-2.8,1c-0.8,0.7-1.2,2-1.2,3.9v8.2h-2.5v-15h2.3v2.1c1.1-1.7,2.7-2.5,4.8-2.5c0.9,0,1.7,0.2,2.5,0.5
		c0.8,0.3,1.3,0.8,1.7,1.3c0.4,0.5,0.6,1.2,0.8,1.9c0.1,0.5,0.1,1.3,0.1,2.5V29.2z M138.4,26.3c0-1.7,1.3-3,3-3s3,1.3,3,3
		c0,1.7-1.3,3-3,3S138.4,28,138.4,26.3z M236.1,36.8h-93.7v-6.6c1.7-0.4,3-2,3-3.9s-1.3-3.4-3-3.9V1h93.7V36.8z"/>
	<rect x="20" y="25.8" class="st0" width="4.9" height="22"/>
	<rect x="9.9" y="25.8" class="st0" width="4.9" height="22"/>
	<rect y="25.8" class="st0" width="4.9" height="22"/>
	<circle class="st0" cx="27.6" cy="10.3" r="3.5"/>
	<rect y="16.6" class="st0" width="30.1" height="4.9"/>
	<path class="st0" d="M74.3,20c-0.7-0.2-1.7-0.3-3-0.3h-4.8v7.1h5.2c0.9,0,1.5,0,1.9-0.1c0.6-0.1,1.2-0.3,1.6-0.6
		c0.4-0.3,0.8-0.6,1-1.2c0.3-0.5,0.4-1.1,0.4-1.7c0-0.8-0.2-1.4-0.6-2S75,20.2,74.3,20z"/>
	<path class="st0" d="M88.3,15.9c-1.2,0-2.2,0.4-3,1.2c-0.8,0.8-1.2,1.8-1.3,3.1h8.4c-0.1-1.3-0.4-2.2-1-2.8
		C90.7,16.4,89.6,15.9,88.3,15.9z"/>
	<path class="st0" d="M73.5,16.9c0.7-0.2,1.2-0.6,1.6-1c0.4-0.5,0.5-1.1,0.5-1.8c0-0.7-0.2-1.3-0.5-1.8c-0.3-0.5-0.8-0.9-1.4-1.1
		s-1.7-0.3-3.2-0.3h-4.1v6.3h4.5C72.1,17.2,73,17.1,73.5,16.9z"/>
</g>
</svg>
